<?xml version="1.0" encoding="utf-8" standalone="no"?><!DOCTYPE svg PUBLIC "-//W3C//DTD SVG 20010904//EN" "http://www.w3.org/TR/2001/REC-SVG-20010904/DTD/svg10.dtd"><svg xmlns="http://www.w3.org/2000/svg" width="829" height="508" xmlns:xlink="http://www.w3.org/1999/xlink"><source><![CDATA[Title: FDO_WORKFLOW_SIGN_UP 
Note left of WebApp: cognito username \n (=) \nuser domain email
WebApp->Cognito: CALL : signUp(username, password)
Cognito->>WebApp: SUCCESS : { User, userSub, userConfirmed }
Note left of WebApp: cognito userSub \n (=) \n user domain _id
WebApp->Backend: CALL : createUser(_id, email)
Backend->>WebApp: SUCCESS : User Domain
]]></source><desc>FDO_WORKFLOW_SIGN_UP</desc><defs><marker viewBox="0 0 5 5" markerWidth="5" markerHeight="5" orient="auto" refX="5" refY="2.5" id="markerArrowBlock"><path d="M 0 0 L 5 2.5 L 0 5 z"></path></marker><marker viewBox="0 0 9.6 16" markerWidth="4" markerHeight="16" orient="auto" refX="9.6" refY="8" id="markerArrowOpen"><path d="M 9.6,8 1.92,16 0,13.7 5.76,8 0,2.286 1.92,0 9.6,8 z"></path></marker></defs><g class="title"><path d="M10,10C269.1,-2.3 59.3,22.3 318.4,10.0C319.5,17.3 317.3,23.5 318.4,37.4C269.1,25.0 244.4,49.7 10.0,37.4C8.9,30.8 11.1,32.5 10.0,10.0" style="stroke-width: 2px;" stroke="#000000" fill="#ffffff"></path><text x="15.5" y="28.883333206176758" style="font-size: 16px; font-family: danielbd;"><tspan x="15">FDO_WORKFLOW_SIGN_UP</tspan></text></g><g class="actor"><path d="M160.20833587646484,47.38333320617676C212.2,50.9 234.9,43.8 249.2,47.4C251.0,72.2 247.3,69.9 249.2,93.1C208.8,89.5 196.9,96.7 160.2,93.1C162.0,65.0 158.4,72.6 160.2,47.4" style="stroke-width: 2px;" stroke="#000000" fill="#ffffff"></path><text x="170.70833587646484" y="72.20000076293945" style="font-size: 16px; font-family: danielbd;"><tspan x="170.20833587646484">WebApp</tspan></text></g><g class="actor"><path d="M160.20833587646484,442.7166690826416C178.8,446.3 195.9,439.2 249.2,442.7C247.3,481.1 251.0,450.0 249.2,488.4C176.1,492.0 217.7,484.9 160.2,488.4C158.4,481.1 162.0,477.5 160.2,442.7" style="stroke-width: 2px;" stroke="#000000" fill="#ffffff"></path><text x="170.70833587646484" y="467.5333366394043" style="font-size: 16px; font-family: danielbd;"><tspan x="170.20833587646484">WebApp</tspan></text></g><path d="M204.7,93.1C190.7,358.8 218.7,296.9 204.7,442.7" style="stroke-width: 2px;" stroke="#000000" fill="none"></path><g class="actor"><path d="M599.7083435058594,47.38333320617676C613.5,43.9 665.9,50.8 686.1,47.4C687.9,75.0 684.3,67.4 686.1,93.1C672.3,96.6 665.4,89.6 599.7,93.1C597.9,79.2 601.5,55.9 599.7,47.4" style="stroke-width: 2px;" stroke="#000000" fill="#ffffff"></path><text x="610.2083435058594" y="70.38333320617676" style="font-size: 16px; font-family: danielbd;"><tspan x="609.7083435058594">Cognito</tspan></text></g><g class="actor"><path d="M599.7083435058594,442.7166690826416C614.4,446.2 627.4,439.3 686.1,442.7C684.3,457.3 687.9,474.7 686.1,488.4C642.0,491.9 620.4,485.0 599.7,488.4C601.5,450.0 597.9,454.8 599.7,442.7" style="stroke-width: 2px;" stroke="#000000" fill="#ffffff"></path><text x="610.2083435058594" y="465.7166690826416" style="font-size: 16px; font-family: danielbd;"><tspan x="609.7083435058594">Cognito</tspan></text></g><path d="M642.9,93.1C656.9,358.8 628.9,338.2 642.9,442.7" style="stroke-width: 2px;" stroke="#000000" fill="none"></path><g class="actor"><path d="M706.0916748046875,47.38333320617676C773.9,51.1 729.0,43.6 799.8,47.4C798.0,58.4 801.7,74.2 799.8,93.1C747.3,96.8 755.8,89.4 706.1,93.1C707.9,58.4 704.3,61.5 706.1,47.4" style="stroke-width: 2px;" stroke="#000000" fill="#ffffff"></path><text x="716.5916748046875" y="75.55000019073486" style="font-size: 16px; font-family: danielbd;"><tspan x="716.0916748046875">Backend</tspan></text></g><g class="actor"><path d="M706.0916748046875,442.7166690826416C724.5,439.0 767.6,446.5 799.8,442.7C798.0,456.6 801.7,461.8 799.8,488.4C728.6,492.2 721.1,484.7 706.1,488.4C704.3,478.7 707.9,450.0 706.1,442.7" style="stroke-width: 2px;" stroke="#000000" fill="#ffffff"></path><text x="716.5916748046875" y="470.8833360671997" style="font-size: 16px; font-family: danielbd;"><tspan x="716.0916748046875">Backend</tspan></text></g><path d="M753.0,93.1C766.9,151.9 739.0,212.4 753.0,442.7" style="stroke-width: 2px;" stroke="#000000" fill="none"></path><g class="note"><path d="M20,113.10000038146973C88.1,119.7 80.6,106.5 184.7,113.1C182.1,128.7 187.3,123.5 184.7,178.0C81.2,184.6 135.6,171.4 20.0,178.0C17.4,142.2 22.6,162.4 20.0,113.1" style="stroke-width: 2px;" stroke="#000000" fill="#ffffff"></path><text x="25.5" y="131.10000038146973" style="font-size: 16px; font-family: danielbd;"><tspan x="25">cognito username</tspan><tspan dy="1.2em" x="25">(=)</tspan><tspan dy="1.2em" x="25">user domain email</tspan></text></g><g class="signal"><text x="263.20001220703125" y="203.85000228881836" style="font-size: 16px; font-family: danielbd;"><tspan x="262.70001220703125">CALL : signUp(username, password)</tspan></text><path d="M204.7,225.1C320.3,207.6 570.0,242.7 642.9,225.1" style="stroke-width: 2px; marker-end: url(&quot;#markerArrowBlock&quot;);" stroke="#000000" fill="none"></path></g><g class="signal"><text x="215.20000100135803" y="255.41666889190674" style="font-size: 16px; font-family: danielbd;"><tspan x="214.68333435058594">SUCCESS : { User, userSub, userConfirmed }</tspan></text><path d="M642.9,263.4C376.0,245.9 517.2,280.9 204.7,263.4" style="stroke-width: 2px; marker-end: url(&quot;#markerArrowOpen&quot;);" stroke="#000000" fill="none"></path></g><g class="note"><path d="M24.399993896484375,283.4000015258789C155.7,277.0 50.0,289.8 184.7,283.4C182.1,326.5 187.3,327.7 184.7,348.3C137.6,354.7 149.7,341.9 24.4,348.3C21.8,316.7 27.0,313.3 24.4,283.4" style="stroke-width: 2px;" stroke="#000000" fill="#ffffff"></path><text x="29.899993896484375" y="301.4000015258789" style="font-size: 16px; font-family: danielbd;"><tspan x="29.399993896484375">cognito userSub</tspan><tspan dy="1.2em" x="29.399993896484375">(=)</tspan><tspan dy="1.2em" x="29.399993896484375">user domain _id</tspan></text></g><g class="signal"><text x="340.6041774749756" y="378.758337020874" style="font-size: 16px; font-family: danielbd;"><tspan x="340.1041774749756">CALL : createUser(_id, email)</tspan></text><path d="M204.7,386.2C412.8,408.1 292.4,364.3 753.0,386.2" style="stroke-width: 2px; marker-end: url(&quot;#markerArrowBlock&quot;);" stroke="#000000" fill="none"></path></g><g class="signal"><text x="362.79583954811096" y="415.9666690826416" style="font-size: 16px; font-family: danielbd;"><tspan x="362.27917289733887">SUCCESS : User Domain</tspan></text><path d="M753.0,422.7C413.9,400.8 550.3,444.6 204.7,422.7" style="stroke-width: 2px; marker-end: url(&quot;#markerArrowOpen&quot;);" stroke="#000000" fill="none"></path></g></svg>