<?xml version="1.0" encoding="UTF-8" standalone="no"?>
<!DOCTYPE svg PUBLIC "-//W3C//DTD SVG 20010904//EN" "http://www.w3.org/TR/2001/REC-SVG-20010904/DTD/svg10.dtd">
<svg xmlns="http://www.w3.org/2000/svg" width="679" height="338" xmlns:xlink="http://www.w3.org/1999/xlink"><source><![CDATA[Title: FDO_WORKFLOW_SIGN_UP 
WebApp->Cognito: CALL : signUp
Cognito->>WebApp: SUCCESS : { User, userSub, userConfirmed }
WebApp->Backend: CALL : createUser
Backend->>WebApp: SUCCESS : User Domain]]></source><desc>FDO_WORKFLOW_SIGN_UP</desc><defs><marker viewBox="0 0 5 5" markerWidth="5" markerHeight="5" orient="auto" refX="5" refY="2.5" id="markerArrowBlock"><path d="M 0 0 L 5 2.5 L 0 5 z"/></marker><marker viewBox="0 0 9.6 16" markerWidth="4" markerHeight="16" orient="auto" refX="9.6" refY="8" id="markerArrowOpen"><path d="M 9.6,8 1.92,16 0,13.7 5.76,8 0,2.286 1.92,0 9.6,8 z"/></marker></defs><g class="title"><path d="M10,10C84.0,22.3 128.3,-2.3 318.4,10.0C319.5,33.0 317.3,20.6 318.4,37.4C244.4,49.7 269.1,25.0 10.0,37.4C8.9,33.0 11.1,14.4 10.0,10.0" style="stroke-width: 2px;" stroke="#000000" fill="#ffffff"/><text x="15.5" y="28.883333206176758" style="font-size: 16px; font-family: danielbd;"><tspan x="15">FDO_WORKFLOW_SIGN_UP</tspan></text></g><g class="actor"><path d="M10,47.38333320617676C84.7,43.8 53.6,50.9 98.9,47.4C100.8,59.3 97.1,54.7 98.9,93.1C24.2,89.5 81.9,96.7 10.0,93.1C11.8,61.2 8.2,61.0 10.0,47.4" style="stroke-width: 2px;" stroke="#000000" fill="#ffffff"/><text x="20.5" y="72.20000076293945" style="font-size: 16px; font-family: danielbd;"><tspan x="20">WebApp</tspan></text></g><g class="actor"><path d="M10,272.9166660308838C31.3,276.5 24.2,269.4 98.9,272.9C97.1,298.5 100.8,311.3 98.9,318.6C43.0,315.1 84.7,322.2 10.0,318.6C8.2,295.1 11.8,284.3 10.0,272.9" style="stroke-width: 2px;" stroke="#000000" fill="#ffffff"/><text x="20.5" y="297.7333335876465" style="font-size: 16px; font-family: danielbd;"><tspan x="20">WebApp</tspan></text></g><path d="M54.5,93.1C47.3,136.3 61.7,202.3 54.5,272.9" style="stroke-width: 2px;" stroke="#000000" fill="none"/><g class="actor"><path d="M449.50000762939453,47.38333320617676C481.7,43.9 473.6,50.8 535.9,47.4C534.1,58.4 537.7,73.4 535.9,93.1C470.2,96.6 515.2,89.6 449.5,93.1C451.3,65.5 447.7,54.7 449.5,47.4" style="stroke-width: 2px;" stroke="#000000" fill="#ffffff"/><text x="460.00000762939453" y="70.38333320617676" style="font-size: 16px; font-family: danielbd;"><tspan x="459.50000762939453">Cognito</tspan></text></g><g class="actor"><path d="M449.50000762939453,272.9166660308838C477.2,269.5 515.2,276.4 535.9,272.9C537.7,282.6 534.1,289.2 535.9,318.6C470.2,315.2 484.7,322.1 449.5,318.6C451.3,307.7 447.7,288.0 449.5,272.9" style="stroke-width: 2px;" stroke="#000000" fill="#ffffff"/><text x="460.00000762939453" y="295.9166660308838" style="font-size: 16px; font-family: danielbd;"><tspan x="459.50000762939453">Cognito</tspan></text></g><path d="M492.7,93.1C499.9,239.8 485.5,175.9 492.7,272.9" style="stroke-width: 2px;" stroke="#000000" fill="none"/><g class="actor"><path d="M555.8833389282227,47.38333320617676C597.3,51.1 602.3,43.6 649.6,47.4C647.8,74.3 651.4,67.5 649.6,93.1C578.4,89.4 570.9,96.8 555.9,93.1C554.1,80.8 557.7,85.4 555.9,47.4" style="stroke-width: 2px;" stroke="#000000" fill="#ffffff"/><text x="566.3833389282227" y="75.55000019073486" style="font-size: 16px; font-family: danielbd;"><tspan x="565.8833389282227">Backend</tspan></text></g><g class="actor"><path d="M555.8833389282227,272.9166660308838C595.9,276.7 614.1,269.2 649.6,272.9C651.4,296.3 647.8,294.3 649.6,318.6C584.5,322.4 630.1,314.9 555.9,318.6C557.7,283.9 554.1,287.0 555.9,272.9" style="stroke-width: 2px;" stroke="#000000" fill="#ffffff"/><text x="566.3833389282227" y="301.0833330154419" style="font-size: 16px; font-family: danielbd;"><tspan x="565.8833389282227">Backend</tspan></text></g><path d="M602.8,93.1C609.9,187.2 595.6,142.1 602.8,272.9" style="stroke-width: 2px;" stroke="#000000" fill="none"/><g class="signal"><text x="205.56666564941406" y="118.95000076293945" style="font-size: 16px; font-family: danielbd;"><tspan x="205.06666564941406">CALL : signUp</tspan></text><path d="M54.5,140.2C314.1,157.8 373.4,122.7 492.7,140.2" style="stroke-width: 2px; marker-end: url(&quot;#markerArrowBlock&quot;);" stroke="#000000" fill="none"/></g><g class="signal"><text x="64.99166512489319" y="170.51666736602783" style="font-size: 16px; font-family: danielbd;"><tspan x="64.4749984741211">SUCCESS : { User, userSub, userConfirmed }</tspan></text><path d="M492.7,178.5C387.5,161.0 415.2,196.0 54.5,178.5" style="stroke-width: 2px; marker-end: url(&quot;#markerArrowOpen&quot;);" stroke="#000000" fill="none"/></g><g class="signal"><text x="240.75417137145996" y="208.9583339691162" style="font-size: 16px; font-family: danielbd;"><tspan x="240.25417137145996">CALL : createUser</tspan></text><path d="M54.5,216.4C515.0,238.3 142.2,194.5 602.8,216.4" style="stroke-width: 2px; marker-end: url(&quot;#markerArrowBlock&quot;);" stroke="#000000" fill="none"/></g><g class="signal"><text x="212.58750367164612" y="246.1666660308838" style="font-size: 16px; font-family: danielbd;"><tspan x="212.07083702087402">SUCCESS : User Domain</tspan></text><path d="M602.8,252.9C515.0,231.0 246.4,274.8 54.5,252.9" style="stroke-width: 2px; marker-end: url(&quot;#markerArrowOpen&quot;);" stroke="#000000" fill="none"/></g></svg>