<?xml version="1.0" encoding="utf-8" standalone="no"?><!DOCTYPE svg PUBLIC "-//W3C//DTD SVG 20010904//EN" "http://www.w3.org/TR/2001/REC-SVG-20010904/DTD/svg10.dtd"><svg xmlns="http://www.w3.org/2000/svg" width="694" height="343" xmlns:xlink="http://www.w3.org/1999/xlink"><source><![CDATA[Title: FDO_WORKFLOW_CONFIRM_SIGN_UP 
WebApp->Cognito: CALL : confirmSignUp(username, validationCode)
Cognito->>WebApp: SUCCESS 
WebApp->Backend: CALL : updateUser(username, validationStatus)
Backend->>WebApp: SUCCESS : User Domain]]></source><desc>FDO_WORKFLOW_CONFIRM_SIGN_UP</desc><defs><marker viewBox="0 0 5 5" markerWidth="5" markerHeight="5" orient="auto" refX="5" refY="2.5" id="markerArrowBlock"><path d="M 0 0 L 5 2.5 L 0 5 z"></path></marker><marker viewBox="0 0 9.6 16" markerWidth="4" markerHeight="16" orient="auto" refX="9.6" refY="8" id="markerArrowOpen"><path d="M 9.6,8 1.92,16 0,13.7 5.76,8 0,2.286 1.92,0 9.6,8 z"></path></marker></defs><g class="title"><path d="M10,10C348.2,-6.8 77.2,26.8 430.0,10.0C431.0,28.0 428.9,22.5 430.0,37.5C144.1,20.7 329.2,54.2 10.0,37.5C11.1,33.1 8.9,14.4 10.0,10.0" style="stroke-width: 2px;" stroke="#000000" fill="#ffffff"></path><text x="15.5" y="28.949999809265137" style="font-size: 16px; font-family: danielbd;"><tspan x="15">FDO_WORKFLOW_CONFIRM_SIGN_UP</tspan></text></g><g class="actor"><path d="M10,47.45000076293945C24.2,51.0 31.3,43.9 98.9,47.5C97.1,65.4 100.8,66.2 98.9,93.2C84.7,89.6 49.8,96.7 10.0,93.2C11.8,58.4 8.2,61.9 10.0,47.5" style="stroke-width: 2px;" stroke="#000000" fill="#ffffff"></path><text x="20.5" y="72.26666831970215" style="font-size: 16px; font-family: danielbd;"><tspan x="20">WebApp</tspan></text></g><g class="actor"><path d="M10,278.21666717529297C73.7,274.7 46.3,281.8 98.9,278.2C100.8,313.0 97.1,293.5 98.9,323.9C84.7,327.5 24.2,320.4 10.0,323.9C8.2,316.6 11.8,306.7 10.0,278.2" style="stroke-width: 2px;" stroke="#000000" fill="#ffffff"></path><text x="20.5" y="303.03333473205566" style="font-size: 16px; font-family: danielbd;"><tspan x="20">WebApp</tspan></text></g><path d="M54.5,93.2C47.1,247.8 61.9,233.8 54.5,278.2" style="stroke-width: 2px;" stroke="#000000" fill="none"></path><g class="actor"><path d="M464.19998931884766,47.45000076293945C536.8,50.9 529.9,44.0 550.6,47.5C548.8,78.3 552.4,85.5 550.6,93.2C536.3,89.7 487.8,96.6 464.2,93.2C462.4,62.6 466.0,82.2 464.2,47.5" style="stroke-width: 2px;" stroke="#000000" fill="#ffffff"></path><text x="474.69998931884766" y="70.45000076293945" style="font-size: 16px; font-family: danielbd;"><tspan x="474.19998931884766">Cognito</tspan></text></g><g class="actor"><path d="M464.19998931884766,278.21666717529297C536.8,281.7 482.8,274.8 550.6,278.2C548.8,289.2 552.4,285.5 550.6,323.9C484.9,320.5 528.1,327.4 464.2,323.9C466.0,285.5 462.4,289.2 464.2,278.2" style="stroke-width: 2px;" stroke="#000000" fill="#ffffff"></path><text x="474.69998931884766" y="301.21666717529297" style="font-size: 16px; font-family: danielbd;"><tspan x="474.19998931884766">Cognito</tspan></text></g><path d="M507.4,93.2C500.0,137.6 514.8,233.8 507.4,278.2" style="stroke-width: 2px;" stroke="#000000" fill="none"></path><g class="actor"><path d="M570.5833206176758,47.45000076293945C649.3,51.2 640.3,43.7 664.3,47.5C666.1,74.2 662.5,54.8 664.3,93.2C608.9,96.9 585.6,89.4 570.6,93.2C568.8,85.9 572.4,58.5 570.6,47.5" style="stroke-width: 2px;" stroke="#000000" fill="#ffffff"></path><text x="581.0833206176758" y="75.61666774749756" style="font-size: 16px; font-family: danielbd;"><tspan x="580.5833206176758">Backend</tspan></text></g><g class="actor"><path d="M570.5833206176758,278.21666717529297C623.6,282.0 598.2,274.5 664.3,278.2C662.5,290.1 666.1,300.5 664.3,323.9C590.5,320.2 598.6,327.7 570.6,323.9C572.4,307.6 568.8,313.5 570.6,278.2" style="stroke-width: 2px;" stroke="#000000" fill="#ffffff"></path><text x="581.0833206176758" y="306.3833341598511" style="font-size: 16px; font-family: danielbd;"><tspan x="580.5833206176758">Backend</tspan></text></g><path d="M617.4,93.2C624.9,147.4 610.0,248.6 617.4,278.2" style="stroke-width: 2px;" stroke="#000000" fill="none"></path><g class="signal"><text x="64.9749984741211" y="119.01666831970215" style="font-size: 16px; font-family: danielbd;"><tspan x="64.4749984741211">CALL : confirmSignUp(username, validationCode)</tspan></text><path d="M54.5,140.3C401.2,158.4 372.8,122.2 507.4,140.3" style="stroke-width: 2px; marker-end: url(&quot;#markerArrowBlock&quot;);" stroke="#000000" fill="none"></path></g><g class="signal"><text x="232.3249933719635" y="170.05000114440918" style="font-size: 16px; font-family: danielbd;"><tspan x="231.8083267211914">SUCCESS</tspan></text><path d="M507.4,176.8C268.8,158.7 220.0,194.9 54.5,176.8" style="stroke-width: 2px; marker-end: url(&quot;#markerArrowOpen&quot;);" stroke="#000000" fill="none"></path></g><g class="signal"><text x="127.26249504089355" y="203.7583351135254" style="font-size: 16px; font-family: danielbd;"><tspan x="126.76249504089355">CALL : updateUser(username, validationStatus)</tspan></text><path d="M54.5,221.7C307.5,244.2 225.3,199.2 617.4,221.7" style="stroke-width: 2px; marker-end: url(&quot;#markerArrowBlock&quot;);" stroke="#000000" fill="none"></path></g><g class="signal"><text x="219.93749451637268" y="251.46666717529297" style="font-size: 16px; font-family: danielbd;"><tspan x="219.4208278656006">SUCCESS : User Domain</tspan></text><path d="M617.4,258.2C161.7,280.7 472.5,235.7 54.5,258.2" style="stroke-width: 2px; marker-end: url(&quot;#markerArrowOpen&quot;);" stroke="#000000" fill="none"></path></g></svg>